<svg width="1024" height="1024" viewBox="0 0 1024 1024" fill="none" xmlns="http://www.w3.org/2000/svg">
<rect width="1024" height="1024" rx="100" fill="white"/>
<path d="M260.811 944.462C294.891 948.085 331.797 940.108 369.812 920.518H369.813C458.558 874.974 513.609 767.71 528.586 612.536L531.782 580.575L563.742 577.625H563.741C582.338 576.075 618.855 572.732 642.258 571.703C656.208 571.189 666.468 570.913 673.922 570.599C681.339 570.286 686.216 569.93 689.364 569.207C690.952 568.843 692.274 568.35 693.299 567.596C694.387 566.795 695.031 565.781 695.368 564.612C695.682 563.527 695.721 562.337 695.71 561.178C695.698 559.844 695.631 558.811 695.631 557.185C695.631 551.66 694.848 543.301 694.056 538.812L694.053 538.798L694.05 538.782C693.675 536.847 693.336 535.123 692.749 533.771C692.101 532.276 691.121 531.145 689.522 530.427C688.071 529.775 686.215 529.516 683.927 529.39C681.603 529.261 678.576 529.262 674.668 529.262C660.382 529.262 599.961 533.913 549.99 538.55L549.984 538.551L533.349 540.146L534.521 518.112L534.833 512.793C535.608 499.769 536.678 482.923 537.354 472.775L538.785 453.455L552.944 451.83H552.945C666.614 439.542 767.586 410.218 823.657 373.005L824.973 372.124L824.975 372.123C873.814 339.131 901.03 295.848 903.648 246.422C908.084 169.186 850.213 95.3802 775.277 82.0605L775.278 82.0596C752.34 77.889 741.818 78.7221 717.283 81.0068C704.717 82.177 684.439 88.5998 662.982 99.0898C641.491 109.597 618.613 124.284 600.895 142.133V142.134C547.657 195.374 517.39 267.487 503.697 374.443V374.446C502.279 385.661 500.99 396.041 500.055 403.778C499.587 407.647 499.208 410.858 498.945 413.186C498.814 414.348 498.712 415.296 498.642 415.996C498.628 416.131 498.616 416.262 498.604 416.388C498.319 416.476 497.94 416.579 497.454 416.689C495.873 417.05 493.481 417.446 490.324 417.869C484.028 418.713 474.873 419.636 463.493 420.586C440.742 422.485 409.189 424.481 374.019 426.156C360.223 426.801 347.589 427.445 338.371 427.929C333.763 428.17 330.008 428.372 327.39 428.513C324.709 428.657 323.326 428.731 323.326 428.731C322.65 428.731 322.184 429.07 321.951 429.3C321.727 429.521 321.602 429.75 321.541 429.874C321.415 430.129 321.346 430.385 321.308 430.548C321.223 430.905 321.161 431.352 321.11 431.825C321.007 432.795 320.924 434.159 320.859 435.797C320.762 438.264 320.701 441.434 320.677 444.99L320.665 448.663C320.665 448.669 320.664 448.676 320.664 448.685C320.664 448.716 320.663 448.763 320.662 448.824C320.661 448.946 320.659 449.124 320.656 449.351C320.651 449.804 320.645 450.453 320.64 451.235C320.629 452.8 320.623 454.902 320.64 457.047C320.657 459.187 320.698 461.389 320.782 463.147C320.824 464.023 320.878 464.818 320.949 465.449C320.985 465.763 321.028 466.067 321.083 466.335C321.125 466.541 321.214 466.945 321.426 467.312C321.662 467.72 321.983 467.958 322.181 468.082C322.393 468.215 322.603 468.303 322.77 468.362C323.101 468.481 323.467 468.558 323.808 468.614C324.502 468.73 325.385 468.803 326.345 468.851C328.28 468.946 330.755 468.946 333.169 468.908C335.592 468.87 337.987 468.792 339.774 468.723C340.669 468.688 341.412 468.655 341.933 468.632C342.193 468.62 342.398 468.61 342.538 468.604C342.607 468.6 342.661 468.597 342.697 468.596H342.7C361.107 468.587 444.389 463.022 481.198 459.629L484.614 459.308L484.63 459.306L484.645 459.304L498.126 457.782L497.266 462.778L497.258 462.821L497.252 462.864C496.725 467.076 495.434 487.527 494.404 508.373V508.39L492.918 544.78L486.207 546.039C481.797 546.563 468.265 548.636 456.354 550.156C380.418 559.842 312.943 578.511 259.049 603.775C205.184 629.027 164.731 660.942 143.07 697.218L143.066 697.224C127.968 722.735 121.944 742.103 120.38 770.774V770.778C117.775 820.54 134.208 863.85 169.128 899.03L169.13 899.032C195.577 925.609 226.71 940.836 260.811 944.462ZM542.249 396.774L542.25 396.766C554.247 265.819 600.889 175.013 674.294 137.015L676.032 136.127L676.041 136.123C688.63 129.703 706.664 125.996 721.713 123.906C729.206 122.866 735.902 122.233 740.723 121.86C743.132 121.674 745.072 121.553 746.407 121.479C747.075 121.441 747.591 121.416 747.939 121.399C748.113 121.391 748.245 121.386 748.333 121.382C748.353 121.381 748.371 121.381 748.387 121.38C748.388 121.38 748.39 121.38 748.392 121.38C748.447 121.382 748.532 121.387 748.644 121.393C748.867 121.404 749.2 121.422 749.631 121.448C750.493 121.5 751.75 121.584 753.317 121.714C756.454 121.973 760.829 122.413 765.776 123.131C775.72 124.574 787.79 127.12 796.799 131.499C829.519 147.738 853.378 178.698 860.993 214.995C867.214 244.96 862.511 271.765 846.923 295.543C831.296 319.379 804.63 340.323 766.66 358.282L764.309 359.382C714.771 382.338 654.898 397.026 549.389 411.736L549.367 411.739L549.346 411.743L540.678 413.155L542.249 396.774ZM376.938 868.688C316.438 914.688 248.602 917.353 202.665 875.935L202.658 875.928C186.137 861.186 176.251 846.745 167.847 825.099L167.846 825.097C164.983 817.752 163.259 806.508 162.261 796.941C161.765 792.19 161.453 787.909 161.265 784.815C161.171 783.269 161.108 782.02 161.068 781.16C161.049 780.73 161.035 780.397 161.026 780.173C161.022 780.061 161.019 779.976 161.017 779.919C161.016 779.912 161.016 779.905 161.016 779.899C161.016 779.893 161.016 779.885 161.017 779.878C161.019 779.821 161.021 779.736 161.025 779.624C161.034 779.4 161.048 779.067 161.066 778.64C161.103 777.785 161.161 776.549 161.245 775.029C161.413 771.988 161.685 767.815 162.102 763.284C162.943 754.124 164.348 743.835 166.549 738.33C186.305 690.838 235.233 652.388 312.021 624.966L315.699 623.669L315.705 623.666C337.893 615.842 371.96 606.97 404.439 599.952C436.958 592.926 467.666 587.81 483.19 587.428H483.192L490.968 587.229L489.787 594.518L489.781 594.553C489.001 600.013 487.708 612.433 486.679 622.466L486.678 622.479L486.677 622.49C482.052 674.132 463.538 745.544 445.372 781.364L444.537 782.998C426.875 817.274 401.689 849.536 378.365 867.594L376.938 868.688Z" fill="#7B2FF7" stroke="#7B2FF7" stroke-width="3.77636"/>
</svg>
